<?xml version="1.0" encoding="utf-8"?>
<!-- Generator: Adobe Illustrator 26.0.3, SVG Export Plug-In . SVG Version: 6.00 Build 0)  -->
<svg version="1.1" id="Layer_1" xmlns="http://www.w3.org/2000/svg" xmlns:xlink="http://www.w3.org/1999/xlink" x="0px" y="0px"
	 viewBox="0 0 34 34" style="enable-background:new 0 0 34 34;" xml:space="preserve">
<style type="text/css">
	.Drop_x0020_Shadow{fill:none;}
	.Round_x0020_Corners_x0020_2_x0020_pt{fill:#FFFFFF;stroke:#1D1D1B;stroke-miterlimit:10;}
	.Live_x0020_Reflect_x0020_X{fill:none;}
	.Bevel_x0020_Soft{fill:url(#SVGID_1_);}
	.Dusk{fill:#FFFFFF;}
	.Foliage_GS{fill:#FFDC00;}
	.Pompadour_GS{fill-rule:evenodd;clip-rule:evenodd;fill:#51ADE1;}
	.st0{fill:#FFFFFF;}
	.st1{display:none;fill:#FFFFFF;}
	.st2{display:none;}
	.st3{display:inline;fill:#FFFFFF;}
	.st4{display:none;fill-rule:evenodd;clip-rule:evenodd;fill:#FFFFFF;}
</style>
<linearGradient id="SVGID_1_" gradientUnits="userSpaceOnUse" x1="0" y1="0" x2="0.7071" y2="0.7071">
	<stop  offset="0" style="stop-color:#E6E6EA"/>
	<stop  offset="0.1761" style="stop-color:#E2E2E6"/>
	<stop  offset="0.3567" style="stop-color:#D6D6DA"/>
	<stop  offset="0.5393" style="stop-color:#C1C2C5"/>
	<stop  offset="0.7233" style="stop-color:#A5A6A8"/>
	<stop  offset="0.9067" style="stop-color:#808384"/>
	<stop  offset="1" style="stop-color:#6B6E6E"/>
</linearGradient>
<path class="st0" d="M33.3,8.8c-0.4-1.5-1.5-2.6-3-3C27.6,5.1,17,5.1,17,5.1S6.4,5.1,3.7,5.8c-1.5,0.4-2.6,1.5-3,3C0,11.5,0,17,0,17
	s0,5.5,0.7,8.2c0.4,1.5,1.5,2.6,3,3C6.4,28.9,17,28.9,17,28.9s10.6,0,13.3-0.7c1.5-0.4,2.6-1.5,3-3C34,22.5,34,17,34,17
	S34,11.5,33.3,8.8z M13.6,22.1V11.9l8.8,5.1L13.6,22.1z"/>
<path class="st1" d="M6.5,0C2.9,0,0,2.9,0,6.5v20.9C0,31.1,2.9,34,6.5,34h20.9c3.6,0,6.5-2.9,6.5-6.5V6.5C34,2.9,31.1,0,27.5,0H6.5z
	 M6.5,2.6h20.9c2.2,0,3.9,1.7,3.9,3.9v20.9c0,2.2-1.7,3.9-3.9,3.9h-4.2V20.8h3.7l0.5-4.2h-4.2v-2.7c0-1.2,0.3-2,2.1-2h2.2V8.1
	C27.2,8.1,25.9,8,24.4,8c-3.2,0-5.5,2-5.5,5.6v3.1l-3.2,0v4.2l3.2,0v10.5H6.5c-2.2,0-3.9-1.7-3.9-3.9V6.5C2.6,4.4,4.4,2.6,6.5,2.6z"
	/>
<g class="st2">
	<path class="st3" d="M27.5,0H6.5C4.8,0,3.1,0.7,1.9,1.9C0.7,3.1,0,4.8,0,6.5v20.9c0,1.7,0.7,3.4,1.9,4.6C3.1,33.3,4.8,34,6.5,34
		h20.9c1.7,0,3.4-0.7,4.6-1.9c1.2-1.2,1.9-2.9,1.9-4.6V6.5c0-1.7-0.7-3.4-1.9-4.6C30.9,0.7,29.2,0,27.5,0z M31.4,27.5
		c0,1-0.4,2-1.1,2.8c-0.7,0.7-1.7,1.1-2.8,1.1H6.5c-1,0-2-0.4-2.8-1.1c-0.7-0.7-1.1-1.7-1.1-2.8V6.5c0-1,0.4-2,1.1-2.8
		s1.7-1.1,2.8-1.1h20.9c1,0,2,0.4,2.8,1.1c0.7,0.7,1.1,1.7,1.1,2.8V27.5z"/>
	<path class="st3" d="M24.8,11.8c-1,0-2-0.4-2.8-1.1c-0.7-0.7-1.1-1.7-1.1-2.8c0-0.3-0.1-0.7-0.4-0.9c-0.2-0.2-0.6-0.4-0.9-0.4
		c-0.3,0-0.7,0.1-0.9,0.4c-0.2,0.2-0.4,0.6-0.4,0.9v13.1c0,0.8-0.2,1.5-0.7,2.2c-0.4,0.6-1,1.1-1.8,1.4c-0.7,0.3-1.5,0.4-2.3,0.2
		c-0.8-0.2-1.5-0.5-2-1.1c-0.5-0.5-0.9-1.2-1.1-2c-0.2-0.8-0.1-1.5,0.2-2.3c0.3-0.7,0.8-1.3,1.4-1.8c0.6-0.4,1.4-0.7,2.2-0.7
		c0.3,0,0.7-0.1,0.9-0.4c0.2-0.2,0.4-0.6,0.4-0.9s-0.1-0.7-0.4-0.9c-0.2-0.2-0.6-0.4-0.9-0.4c-1.3,0-2.6,0.4-3.6,1.1
		c-1.1,0.7-1.9,1.7-2.4,2.9c-0.5,1.2-0.6,2.5-0.4,3.8c0.3,1.3,0.9,2.4,1.8,3.3c0.9,0.9,2.1,1.5,3.3,1.8c1.3,0.3,2.6,0.1,3.8-0.4
		c1.2-0.5,2.2-1.3,2.9-2.4c0.7-1.1,1.1-2.3,1.1-3.6v-7.8c1.1,0.9,2.5,1.3,3.9,1.3c0.3,0,0.7-0.1,0.9-0.4c0.2-0.2,0.4-0.6,0.4-0.9
		c0-0.3-0.1-0.7-0.4-0.9C25.5,11.9,25.2,11.8,24.8,11.8z"/>
</g>
<path class="st1" d="M9.9,0C4.4,0,0,4.4,0,9.9v14.3C0,29.6,4.4,34,9.9,34h14.3c5.4,0,9.9-4.4,9.9-9.9V9.9C34,4.4,29.6,0,24.1,0H9.9z
	 M9.9,2.6h14.3c4,0,7.3,3.2,7.3,7.3v14.3c0,4-3.2,7.3-7.2,7.3H9.9c-4,0-7.3-3.2-7.3-7.2V9.9C2.6,5.8,5.8,2.6,9.9,2.6z M27.5,5.2
	c-0.7,0-1.3,0.6-1.3,1.3c0,0.7,0.6,1.3,1.3,1.3c0.7,0,1.3-0.6,1.3-1.3C28.8,5.8,28.2,5.2,27.5,5.2z M17,7.8c-5,0-9.2,4.1-9.2,9.2
	c0,5,4.1,9.2,9.2,9.2c5,0,9.2-4.1,9.2-9.2C26.2,12,22,7.8,17,7.8z M17,10.5c3.6,0,6.5,2.9,6.5,6.5c0,3.6-2.9,6.5-6.5,6.5
	c-3.6,0-6.5-2.9-6.5-6.5C10.5,13.4,13.4,10.5,17,10.5z"/>
<path class="st4" d="M29.8,0C32.1,0,34,1.9,34,4.2v25.7c0,2.3-1.9,4.2-4.2,4.2H4.2C1.9,34,0,32.1,0,29.8V4.2C0,1.9,1.9,0,4.2,0H29.8
	L29.8,0z M10.7,28.1v-15h-5v15H10.7z M28.6,28.1v-8.6c0-4.6-2.5-6.7-5.7-6.7c-2.6,0-3.8,1.5-4.5,2.5v-2.1h-5c0.1,1.4,0,15,0,15h5
	v-8.4c0-0.4,0-0.9,0.2-1.2c0.4-0.9,1.2-1.8,2.6-1.8c1.8,0,2.5,1.4,2.5,3.4v8H28.6z M8.2,5.9C6.5,5.9,5.4,7,5.4,8.5
	c0,1.4,1.1,2.6,2.8,2.6h0c1.7,0,2.8-1.2,2.8-2.6C11,7,9.9,5.9,8.2,5.9z"/>
<path class="st1" d="M34,6.8c-1.3,0.6-2.6,1-4,1.1c1.4-0.8,2.6-2.2,3.1-3.7c-1.4,0.8-2.8,1.4-4.4,1.6c-1.4-1.4-3.3-2.2-5.2-2.2
	c-3.8,0-6.9,3-6.9,6.7c0,0.5,0,1.1,0.1,1.5C9.4,11.9,4.4,7.8,1,3.6c-0.7,1-1,2.2-1,3.4c0,2.3,1.3,4.4,3.1,5.6
	C2,12.6,0.9,12.3,0,11.9c0,0,0,0,0,0.1c0,3.3,2.4,6,5.5,6.6c-0.6,0.1-1.1,0.3-1.8,0.3c-0.4,0-0.8,0-1.3-0.1c0.9,2.7,4.8,5.9,7.9,5.9
	c-2.4,1.8-4.6,3.3-9.1,3.3c-0.6,0-0.1,0-1.2,0c3.1,1.9,6.8,2.4,10.6,2.4c12.9,0,19.8-10.3,19.8-19.2c0-0.3,0-0.5,0-0.8
	C31.9,9.4,33,8.2,34,6.8z"/>
</svg>
