<svg width="48" height="48" viewBox="0 0 48 48" fill="none" xmlns="http://www.w3.org/2000/svg">
<path d="M24 16V14M16 24H14M24 32V34M32 24H34M31.5 24C31.5 28.1421 28.1421 31.5 24 31.5C19.8579 31.5 16.5 28.1421 16.5 24C16.5 19.8579 19.8579 16.5 24 16.5C28.1421 16.5 31.5 19.8579 31.5 24ZM27 24C27 25.6569 25.6569 27 24 27C22.3431 27 21 25.6569 21 24C21 22.3431 22.3431 21 24 21C25.6569 21 27 22.3431 27 24Z" stroke="#1C1A1A" stroke-width="1.5" stroke-linecap="round" stroke-linejoin="round"/>
<rect x="0.75" y="0.75" width="46.5" height="46.5" rx="23.25" stroke="#1C1A1A" stroke-width="1.5"/>
</svg>
